<svg width="55" height="55" viewBox="0 0 55 55" fill="none" xmlns="http://www.w3.org/2000/svg">
<path d="M27.5001 38.3333C30.3733 38.3333 33.1288 37.192 35.1604 35.1603C37.1921 33.1287 38.3335 30.3732 38.3335 27.5C38.3335 24.6268 37.1921 21.8713 35.1604 19.8397C33.1288 17.808 30.3733 16.6667 27.5001 16.6667L27.5001 38.3333Z" fill="#EFE9FA"/>
<path fill-rule="evenodd" clip-rule="evenodd" d="M27.5 0.416668C12.5419 0.416668 0.416687 12.5419 0.416687 27.5C0.416687 42.4581 12.5419 54.5833 27.5 54.5833C42.4581 54.5833 54.5834 42.4581 54.5834 27.5C54.5834 12.5419 42.4581 0.416668 27.5 0.416668ZM27.5 5.83333L27.5 16.6667C24.6268 16.6667 21.8713 17.808 19.8397 19.8397C17.8081 21.8713 16.6667 24.6268 16.6667 27.5C16.6667 30.3732 17.8081 33.1287 19.8397 35.1603C21.8713 37.192 24.6268 38.3333 27.5 38.3333L27.5 49.1667C33.2464 49.1667 38.7574 46.8839 42.8207 42.8207C46.884 38.7574 49.1667 33.2464 49.1667 27.5C49.1667 21.7536 46.884 16.2426 42.8207 12.1794C38.7574 8.11607 33.2464 5.83333 27.5 5.83333V5.83333Z" fill="#EFE9FA"/>
</svg>
